<?xml version="1.0" encoding="utf-8"?>
<!-- Generator: Adobe Illustrator 17.0.2, SVG Export Plug-In . SVG Version: 6.00 Build 0)  -->
<!DOCTYPE svg PUBLIC "-//W3C//DTD SVG 1.1//EN" "http://www.w3.org/Graphics/SVG/1.1/DTD/svg11.dtd">
<svg version="1.1" id="Layer_1" xmlns="http://www.w3.org/2000/svg" xmlns:xlink="http://www.w3.org/1999/xlink" x="0px" y="0px"
	 width="66px" height="36px" viewBox="0 0 66 36" enable-background="new 0 0 66 36" xml:space="preserve">
<path fill="#D1C3BA" d="M27.56,0.083c6.597,0.467,19.017,11.96,19.017,23.358c0,6.901-6.146,12.496-13.727,12.496
	s-13.426-5.293-13.426-12.195c0-6.767,11.216-9.738,7.414-22.85C26.837,0.891,26.439-0.088,27.56,0.083z"/>
<path fill="#D1C3BA" d="M4.865,8.778c3.944,0.279,11.371,7.151,11.371,13.966c0,4.127-3.675,7.472-8.208,7.472S0,27.052,0,22.925
	c0-4.047,6.706-5.823,4.433-13.663C4.433,9.262,4.195,8.676,4.865,8.778z"/>
<path fill="#D1C3BA" d="M54.629,8.778C58.573,9.058,66,15.93,66,22.745c0,4.127-3.675,7.472-8.208,7.472s-8.028-3.165-8.028-7.292
	c0-4.047,6.706-5.823,4.433-13.663C54.197,9.262,53.959,8.676,54.629,8.778z"/>
</svg>
