<?xml version="1.0" encoding="utf-8"?>
<!-- Generator: Adobe Illustrator 17.0.2, SVG Export Plug-In . SVG Version: 6.00 Build 0)  -->
<!DOCTYPE svg PUBLIC "-//W3C//DTD SVG 1.1//EN" "http://www.w3.org/Graphics/SVG/1.1/DTD/svg11.dtd">
<svg version="1.1" id="Layer_1" xmlns="http://www.w3.org/2000/svg" xmlns:xlink="http://www.w3.org/1999/xlink" x="0px" y="0px"
	 width="126px" height="168px" viewBox="0 0 126 168" enable-background="new 0 0 126 168" xml:space="preserve">
<g>
	<g>
		<path fill="#5C3C23" stroke="#241E20" stroke-width="4" stroke-miterlimit="10" d="M87.512,164.258
			c2.686,2.52,9.5-2.429,17.488-2.429c10.335,0,18.714,8.297,18.714-2.038c0-7.311-4.202-13.626-10.313-16.705
			c-0.357-0.211-82.909-45.402-82.909-45.402c-2.785-1.645-6.023-2.606-9.492-2.606c-10.335,0-18.714,8.378-18.714,18.714
			c0,3.271,0.841,4.672,2.316,5.065L87.512,164.258z"/>
		<path fill="#C7936C" stroke="#241E20" stroke-width="4" stroke-miterlimit="10" d="M86.286,159.791
			c0,10.335,8.378,2.038,18.714,2.038s18.714,8.297,18.714-2.038c0-10.335-8.378-18.714-18.714-18.714
			S86.286,149.456,86.286,159.791z"/>
		
			<line fill="none" stroke="#241E20" stroke-width="3" stroke-linecap="round" stroke-linejoin="round" stroke-miterlimit="10" x1="76.15" y1="147.744" x2="86.753" y2="152.818"/>
		
			<line fill="#C7936C" stroke="#241E20" stroke-width="3" stroke-linecap="round" stroke-linejoin="round" stroke-miterlimit="10" x1="60.016" y1="143.301" x2="19.298" y2="120.222"/>
		
			<line fill="#C7936C" stroke="#241E20" stroke-width="3" stroke-linecap="round" stroke-linejoin="round" stroke-miterlimit="10" x1="13.747" y1="109.778" x2="4.747" y2="104.89"/>
		
			<line fill="#C7936C" stroke="#241E20" stroke-width="3" stroke-linecap="round" stroke-linejoin="round" stroke-miterlimit="10" x1="108.003" y1="154.778" x2="113.753" y2="163.778"/>
	</g>
	
		<path fill="#CA1E2E" stroke="#241E20" stroke-width="4" stroke-linecap="round" stroke-linejoin="round" stroke-miterlimit="10" d="
		M44.598,3.087c21.898,1.55,63.129,39.701,63.129,77.537c0,22.91-20.402,41.482-45.569,41.482s-44.569-17.572-44.569-40.482
		c0-22.465,37.231-32.325,24.611-75.853C42.199,5.77,40.877,2.518,44.598,3.087z"/>
	
		<path fill="#E83C30" stroke="#241E20" stroke-width="3.5" stroke-linecap="round" stroke-linejoin="round" stroke-miterlimit="10" d="
		M75.575,36.978c-15.662,1.109-45.153,28.396-45.153,55.458c0,16.386,14.592,29.67,32.593,29.67s31.878-12.569,31.878-28.955
		c0-16.068-26.63-23.12-17.603-54.254C77.29,38.897,78.236,36.571,75.575,36.978z"/>
	
		<path fill="#E3B847" stroke="#241E20" stroke-width="3.5" stroke-linecap="round" stroke-linejoin="round" stroke-miterlimit="10" d="
		M57.184,86.03c6.637,0.47,19.135,12.034,19.135,23.502c0,6.944-6.184,12.574-13.812,12.574s-13.509-5.326-13.509-12.271
		c0-6.809,11.285-9.798,7.46-22.992C56.456,86.844,56.056,85.858,57.184,86.03z"/>
	<g>
		<path fill="#5C3C23" stroke="#241E20" stroke-width="4" stroke-miterlimit="10" d="M38.488,164.258
			c-2.686,2.52-9.5-2.429-17.488-2.429c-10.335,0-18.714,8.297-18.714-2.038c0-7.311,4.202-13.626,10.313-16.705
			c0.357-0.211,82.909-45.402,82.909-45.402c2.785-1.645,6.023-2.606,9.492-2.606c10.335,0,18.714,8.378,18.714,18.714
			c0,3.271-0.841,4.672-2.316,5.065L38.488,164.258z"/>
		<path fill="#C7936C" stroke="#241E20" stroke-width="4" stroke-miterlimit="10" d="M39.714,159.791
			c0,10.335-8.378,2.038-18.714,2.038s-18.714,8.297-18.714-2.038c0-10.335,8.378-18.714,18.714-18.714
			S39.714,149.456,39.714,159.791z"/>
		
			<polyline fill="none" stroke="#241E20" stroke-width="3" stroke-linecap="round" stroke-linejoin="round" stroke-miterlimit="10" points="
			30.5,153 30.5,143.818 43.637,137.642 		"/>
		
			<line fill="#C7936C" stroke="#241E20" stroke-width="3" stroke-linecap="round" stroke-linejoin="round" stroke-miterlimit="10" x1="50.984" y1="143.301" x2="91.702" y2="120.222"/>
		
			<line fill="#C7936C" stroke="#241E20" stroke-width="3" stroke-linecap="round" stroke-linejoin="round" stroke-miterlimit="10" x1="80.162" y1="116.76" x2="102.088" y2="104.89"/>
		
			<line fill="#C7936C" stroke="#241E20" stroke-width="3" stroke-linecap="round" stroke-linejoin="round" stroke-miterlimit="10" x1="112.253" y1="109.778" x2="121.253" y2="104.89"/>
		
			<line fill="#C7936C" stroke="#241E20" stroke-width="3" stroke-linecap="round" stroke-linejoin="round" stroke-miterlimit="10" x1="11.5" y1="155" x2="11.5" y2="164"/>
	</g>
</g>
</svg>
